<svg height="512pt" viewBox="-114 0 512 512.0029" width="512pt" xmlns="http://www.w3.org/2000/svg"><path d="m97.980469 210.421875c0 4.503906-3.652344 8.15625-8.15625 8.15625-4.503907 0-8.15625-3.652344-8.15625-8.15625s3.652343-8.15625 8.15625-8.15625c4.503906 0 8.15625 3.652344 8.15625 8.15625zm0 0"/><path d="m163.25 210.421875c0 4.503906-3.652344 8.15625-8.160156 8.15625-4.503906 0-8.15625-3.652344-8.15625-8.15625s3.652344-8.15625 8.15625-8.15625c4.507812 0 8.160156 3.652344 8.160156 8.15625zm0 0"/><path d="m104.214844 295.160156c2.882812 1.242188 8.832031 3.324219 16.296875 3.324219 4.109375 0 8.679687-.632813 13.449219-2.378906 10.296874-3.777344 16.394531-10.945313 19.113281-14.886719 2.328125-3.371094 1.476562-7.996094-1.894531-10.320312-3.375-2.328126-7.996094-1.480469-10.324219 1.894531-1.714844 2.488281-5.558594 7.015625-12.003907 9.375-8.425781 3.089843-15.929687.582031-18.765624-.636719-3.761719-1.621094-8.128907.113281-9.75 3.878906-1.621094 3.765625.117187 8.128906 3.878906 9.75zm0 0"/><path d="m284.585938 146.5c0-9.339844-4.496094-18.027344-11.726563-23.507812 6.449219-17.226563-4.984375-36.664063-23.144531-39.425782-.492188-8.253906-4.355469-15.765625-10.691406-20.945312-1.1875-12.121094-9.878907-22.300782-21.449219-25.53125-4.621094-13.410156-19.28125-21.339844-33.035157-17.800782-9.886718-22.867187-42.03125-26.109374-56.496093-5.917968-16.976563-7.289063-37.28125.179687-45.695313 16.578125-12.085937-.285157-23.449218 7.058593-27.976562 18.304687-14.566406-3.367187-29.371094 7.0625-31.066406 21.933594-16.074219 4.78125-23.3125005 24.371094-14.035157 38.445312-12.355469 9.996094-12.351562 29.554688-.023437 39.574219-10.519532 16.03125.539062 38.132813 19.609375 39.398438 2.742187 9.070312 10.417969 16.011719 19.890625 17.714843v55.246094c0 24.167969 9.847656 47.003906 26.894531 63.542969-4.46875 2.101563-9.082031 5.332031-12.839844 10.316406-7.976562 10.574219-7.242187 22.378907-6.558593 26.960938 1.289062 8.621093 5.625 15.953125 11.226562 22.089843-21.996094 11.84375-36.117188 34.898438-36.117188 60.558594v53.589844c0 7.929688 6.449219 14.378906 14.378907 14.378906h214.605469c7.925781 0 14.375-6.449218 14.375-14.378906v-53.589844c0-25.625-14.082032-48.65625-36.027344-60.515625 5.621094-6.144531 9.972656-13.492187 11.265625-22.132812.605469-4.054688-2.1875-7.832031-6.242188-8.4375-4.054687-.601563-7.832031 2.191406-8.4375 6.242187-1.800781 12.054688-14.511719 23.46875-37.773437 33.921875-3.449219 1.550781-6.554688 2.746094-9.398438 3.761719 13.929688-11.078125 18.242188-16.355469 19.074219-23.1875 1.160156-9.511719-4.761719-19.503906-13.605469-24.265625v-18.566406l3.308594-3.128907c1.242188-1.0625 2.464844-2.175781 3.664062-3.324218 5.886719 1.328125 17.976563 5.0625 25.972657 12.640625 2.972656 2.820312 7.667969 2.695312 10.488281-.277344 2.820312-2.976563 2.695312-7.671875-.277344-10.492187-7.695312-7.296876-17.589844-11.730469-25.453125-14.273438 10.6875-14.929688 16.472657-32.796875 16.472657-51.429688v-4.136718c19.222656-.136719 34.820312-15.808594 34.820312-35.0625v-.667969c0-10.210937-4.386719-19.410156-11.371094-25.824219 4.339844-5.316406 6.734375-12.203125 6.628906-19.0625 14.984376-1.359375 26.765626-13.988281 26.765626-29.316406zm-129.710938 257.855469c-.628906.789062-1.214844 1.613281-1.777344 2.453125-.566406-.839844-1.152344-1.664063-1.78125-2.453125-3.066406-3.851563-5.589844-5.605469-9.761718-8.515625-2.96875-2.070313-7.035157-4.90625-13.410157-9.941406-1.378906-1.089844-2.648437-2.113282-3.828125-3.085938 9.4375 2.316406 19.070313 3.519531 28.804688 3.582031 9.472656.058594 18.964844-1.003906 28.195312-3.121093-1.019531.832031-2.109375 1.710937-3.269531 2.625-6.375 5.035156-10.441406 7.871093-13.410156 9.941406-4.171875 2.910156-6.691407 4.664062-9.761719 8.515625zm26.664062-36.414063c-9.285156 2.460938-18.78125 3.695313-28.332031 3.609375-11.355469-.070312-22.570312-1.90625-33.441406-5.46875.941406-3.09375 1.441406-6.320312 1.460937-9.601562.003907-.074219.011719-.148438.011719-.21875v-8.636719c5.253907.964844 10.617188 1.457031 16.015625 1.457031h1.96875c13.886719 0 27.324219-3.179687 39.5-9.273437v14.628906c0 4.699219.976563 9.285156 2.816406 13.503906zm-106.890624-24.582031c4.449218-5.894531 11.445312-7.59375 15.152343-8.089844 3.570313 2.277344 7.296875 4.300781 11.117188 6.015625l5.476562 3.046875v9.046875c-5.652343 6.597656-8.195312 13.566406-7.375 20.304688.832031 6.832031 5.144531 12.109375 19.074219 23.1875-2.84375-1.015625-5.945312-2.210938-9.398438-3.761719-23.261718-10.453125-35.972656-21.863281-37.773437-33.921875-.316406-2.128906-.992187-9.570312 3.726563-15.828125zm5.070312 50.71875c8.96875 6.304687 18.132812 10.433594 22.894531 12.570313 6.191407 2.785156 11.203125 4.476562 15.621094 5.96875 7.585937 2.558593 12.164063 4.105468 17.742187 9.363281 4.382813 4.125 7.609376 9.707031 9.632813 16.5625v58.609375h-54.816406v-26.984375c0-4.097657-3.324219-7.417969-7.421875-7.417969h-37.175782v-18.71875c0-22.082031 13.328126-41.703125 33.523438-49.953125zm-33.523438 83.511719h29.753907v19.566406h-29.753907zm185.265626 19.566406v-19.566406h28.410156v19.566406zm-27.882813-90.507812c4.753906-2.132813 13.898437-6.253907 22.847656-12.539063 20.148438 8.261719 33.445313 27.871094 33.445313 49.921875v18.71875h-35.832032c-4.097656 0-7.417968 3.320312-7.417968 7.417969v26.984375h-56.171875v-58.179688c2.015625-7.058594 5.292969-12.777344 9.765625-16.992187 5.574218-5.257813 10.15625-6.804688 17.742187-9.367188 4.417969-1.488281 9.425781-3.179687 15.621094-5.964843zm44.140625-185.28125c0 11.070312-8.9375 20.089843-19.976562 20.222656v-35.875c3.726562.078125 7.4375-.539063 10.929687-1.847656 5.445313 3.628906 9.046875 9.8125 9.046875 16.832031zm7.421875-60.273438c-1.488281 0-2.949219-.222656-4.347656-.65625-5.855469-1.820312-11.472657 4.339844-9.015625 10.027344 2.472656 5.730468.910156 12.652344-3.78125 16.773437-3.316406-1.042969-6.84375-1.609375-10.503906-1.609375h-7.175782c-.960937 0-1.878906.191406-2.722656.523438-5.4375-5.917969-4.90625-15.40625 1.027344-20.738282 3.238281-2.910156 3.234375-8.140624-.007813-11.046874-4.722656-4.234376-6.191406-11.441407-3.40625-17.171876 1.316407-2.703124.871094-5.929687-1.128906-8.175781-1.996094-2.246093-5.148437-3.0625-7.988281-2.074219-5.710938 1.992188-12.367188.179688-16.199219-4.53125-3.511719-4.3125-3.335937-12.421874-11-11.472656-5.429687.671875-11.070313-1.976562-14.042969-6.574218-1.292968-2.003907-3.46875-3.261719-5.851562-3.382813-2.382813-.125-4.675782.902344-6.167969 2.761719-6.046875 7.535156-18.019531 7.070312-23.472656-.929688-1.648438-2.414062-4.5625-3.636718-7.441407-3.121094-2.878906.515626-5.1875 2.671876-5.890624 5.511719-2.757813 11.066407-17.324219 14.683594-24.976563 6.261719-1.496094-1.648438-3.660156-2.542969-5.878906-2.421875-2.222657.113281-4.277344 1.222656-5.59375 3.015625-2.421875 3.292969-13.347657 9.574219-20.824219 6.800781-2.277344-.847656-4.824219-.523437-6.820312.863281-1.996094 1.386719-3.183594 3.664063-3.183594 6.089844v20.304688c0 9.574218 14.84375 9.574218 14.84375 0v-11.710938c8.457031-.171875 16.628906-3.882812 22.242187-8.066406 12.824219 8.308594 30.449219 5.195312 39.597657-7.019531 9.808593 6.355469 23.011718 6.207031 32.644531-.40625 4.621093 3.929687 10.371093 6.351562 16.527343 6.871093 4.460938 9.480469 13.6875 15.933594 24.34375 16.742188-.199218 6.0625 1.589844 12.324219 4.96875 17.367188-9.160156 13.679687-5.023437 32.832031 8.980469 41.425781v47.6875c0 .015625.003907.03125.003907.046875v11.503906c0 18.917969-7.15625 36.890625-20.160157 50.632812l-5.824219 5.511719c-1.625 1.394531-3.324218 2.71875-5.074218 3.953125-12.484375 8.882813-27.21875 13.578125-42.617188 13.578125h-1.96875c-6.289062 0-12.511718-.789062-18.507812-2.347656-3.8125-.984375-7.550782-2.289063-11.144532-3.875l-12.035156-6.695313c-20.027344-13.777343-31.980468-36.464843-31.980468-60.757812v-82.28125c0-9.574219-14.839844-9.574219-14.839844 0v11.601562c-3.582032-1.683593-6.078125-5.300781-6.136719-9.5.160156-2.425781-.925781-5.160156-2.871094-6.652343-1.828125-1.402344-4.203125-1.878907-6.433593-1.285157-11.890626 3.171876-18.503907-13.980468-7.695313-19.679687 2.804687-1.480469 4.359375-4.574219 3.871094-7.707031-.488281-3.132813-2.914063-5.609375-6.03125-6.164063-11.351563-2.019531-11.328125-18.984375.058593-20.929687 6.742188-1.152344 8.339844-10.695313 2.171876-13.902344-9.421876-4.894531-6.082032-19.882812 4.675781-20.085938 4.679687.300782 8.734375-4.152343 7.835937-8.808593-1.816406-9.429688 9.253906-16.40625 16.9375-10.488281 2.214844 1.707031 5.195313 2.023437 7.71875.820312 5.386719-2.5625 3.835938-9.726562 6.679688-14.128906 3.324218-5.144532 9.726562-7.65625 15.71875-6.144532 3.855468.972657 7.785156-1.265624 8.925781-5.070312 2.234375-7.484375 8.824219-13.242188 16.515625-14.519531 8.097656-1.351563 15.539062 7.066406 22.359375 5.058593 2.25-.660156 4.054687-2.347656 4.867187-4.546874 6.34375-17.195313 32.4375-14.035157 34.363282 4.257812.277344 2.628906 1.929687 4.914062 4.339844 5.996094 2.410156 1.082031 5.21875.800781 7.363281-.742188 5.320312-3.8125 12.609375-2.789062 16.90625 1.933594 3.882812 4.261719 2.589843 12.722656 10.011719 13.316406 7.636718.609375 13.824218 7.496094 13.398437 15.195313-.152344 2.742187 1.21875 5.339843 3.566406 6.761719 5.460938 3.308593 8.199219 10.011718 6.578125 16.214843-.636718 2.4375.003906 5.027344 1.699219 6.882813 1.699219 1.859375 4.21875 2.726562 6.703125 2.3125 12.683594-2.117188 21.824219 12.832031 14.105469 23.160156-1.394531 1.867188-1.832031 4.285156-1.179688 6.523438.65625 2.238281 2.324219 4.039062 4.507813 4.863281 14.8125 5.570312 10.636718 28.269531-5.136719 28.269531zm0 0"/></svg>