<svg height="512pt" viewBox="-120 0 512 512.00113" width="512pt" xmlns="http://www.w3.org/2000/svg"><path d="m228.710938 366.78125c-16.042969-7.550781-47.484376-7.699219-47.484376-31.554688v-28.03125c24.179688-18.910156 38.511719-48.101562 38.511719-78.882812v-4.363281h2.9375c20.023438 0 36.3125-16.289063 36.3125-36.3125v-5.5625c0-20.023438-16.289062-36.3125-36.3125-36.3125h-2.9375v-134.894531c0-3.589844-1.988281-6.820313-5.191406-8.441407-3.203125-1.617187-6.988281-1.296875-9.875.832031l-15.617187 11.527344-17.511719-12.925781c-3.355469-2.476563-7.867188-2.476563-11.230469 0l-17.511719 12.925781-17.515625-12.925781c-3.359375-2.480469-7.871094-2.476563-11.230468 0l-17.511719 12.925781-17.519531-12.929687c-3.359376-2.472657-7.867188-2.472657-11.222657.003906l-17.515625 12.925781-15.617187-11.527344c-2.886719-2.128906-6.667969-2.449218-9.871094-.832031-3.203125 1.617188-5.191406 4.851563-5.191406 8.441407v130.757812c0 4.171875 3.378906 7.554688 7.554687 7.554688 4.171875 0 7.554688-3.382813 7.554688-7.554688v-31.167969c0-5.320312 2.472656-10.15625 6.78125-13.273437 4.308594-3.117188 9.679687-3.949219 14.730468-2.28125l26.707032 8.8125c10.253906 3.382812 21.515625 3.304687 31.71875-.230469l23.105468-7.996094c5.074219-1.753906 10.488282-.976562 14.863282 2.136719 4.371094 3.113281 6.875 7.976562 6.875 13.34375v2.53125c0 13.875 8.34375 26.113281 21.257812 31.1875l23.871094 9.375v74.25c0 27.25-13.222656 53.039062-35.371094 68.992188-14.5 10.441406-31.644531 15.960937-49.578125 15.960937-7.351562 0-14.640625-.9375-21.671875-2.792969-37.265625-9.792968-63.289062-43.578125-63.289062-82.15625v-50.425781c0-4.175781-3.382813-7.554687-7.554688-7.554687-4.175781 0-7.554687 3.382812-7.554687 7.554687v50.425781c0 42.054688 26.273437 79.257813 64.984375 93.710938v15.246094c0 21.480468-22.792969 21.890624-37.507813 28.144531-28.601562 11.964843-47.082031 39.746093-47.082031 70.789062v60.402344c0 8.488281 6.90625 15.390625 15.394531 15.390625h241.898438c8.484375 0 15.382812-6.902344 15.382812-15.390625v-60.402344c0-29.5625-17.257812-56.8125-43.964843-69.425781zm15.167968-184.707031v5.5625c0 11.691406-9.511718 21.203125-21.203125 21.203125h-2.9375v-47.96875h2.9375c11.691407 0 21.203125 9.511718 21.203125 21.203125zm-57.601562-51.453125c-7.085938-2.785156-11.667969-9.503906-11.667969-17.121094v-2.53125c0-10.320312-4.820313-19.667969-13.226563-25.652344-5.449218-3.882812-11.746093-5.878906-18.160156-5.878906-3.472656 0-6.980468.585938-10.402344 1.769531l-23.109374 8c-7.089844 2.453125-14.917969 2.511719-22.039063.160157l-26.707031-8.816407c-8.921875-2.941406-18.351563-1.835937-26.25 3.003907v-61.484376l9.960937 7.351563c3.355469 2.480469 7.867188 2.476563 11.226563 0l17.515625-12.925781 17.511719 12.925781c3.355468 2.476563 7.867187 2.476563 11.230468 0l17.511719-12.925781 17.515625 12.925781c3.359375 2.476563 7.871094 2.476563 11.230469 0l17.511719-12.925781 17.515624 12.925781c3.359376 2.480469 7.871094 2.476563 11.226563 0l9.960937-7.347656v28.179687c0 .011719-.003906.023438-.003906.039063v87.535156zm-20.160156 186.335937v18.269531c0 14.628907 8.882812 28.195313 22.265624 34.078126v30.765624c0 13.738282-5.347656 26.65625-15.054687 36.363282-9.726563 9.714844-22.640625 15.0625-36.371094 15.0625-28.355469 0-51.421875-23.066406-51.421875-51.425782v-33.582031c8.875-7.011719 14.164063-17.898437 14.164063-29.21875v-10.902343c6.546875 1.328124 13.242187 2.011718 19.976562 2.011718 16.378907-.003906 32.191407-3.929687 46.441407-11.421875zm-151.007813 179.652344v-60.402344c0-20.910156 10.441406-39.972656 27.371094-51.253906v111.9375h-27.089844c-.152344 0-.28125-.128906-.28125-.28125zm242.457031 0c0 .152344-.125.28125-.273437.28125h-24.253907v-47.347656c0-4.171875-3.378906-7.554688-7.554687-7.554688-4.171875 0-7.554687 3.382813-7.554687 7.554688v47.347656h-160.339844v-119.257813c4.246094-1.394531 8.554687-2.597656 12.832031-3.875v26.316407c0 36.6875 29.847656 66.535156 66.535156 66.535156 17.765625 0 34.472657-6.917969 47.050781-19.484375 12.566407-12.566406 19.488282-29.277344 19.488282-47.050781v-25.949219c4.8125 1.433594 9.738281 2.695312 14.433594 4.484375v35.171875c0 4.171875 3.382812 7.554688 7.554687 7.554688 4.175781 0 7.554687-3.382813 7.554687-7.554688v-26.792969c15.195313 11.511719 24.523438 29.738281 24.523438 49.21875v60.402344zm0 0"/><path d="m73.15625 172.894531c0 4.453125-3.605469 8.0625-8.058594 8.0625-4.449218 0-8.058594-3.609375-8.058594-8.0625 0-4.449219 3.609376-8.058593 8.058594-8.058593 4.453125 0 8.058594 3.609374 8.058594 8.058593zm0 0"/><path d="m146.722656 172.894531c0 4.453125-3.605468 8.0625-8.058594 8.0625-4.449218 0-8.058593-3.609375-8.058593-8.0625 0-4.449219 3.609375-8.058593 8.058593-8.058593 4.453126 0 8.058594 3.609374 8.058594 8.058593zm0 0"/><path d="m123.285156 243.65625c-1.988281 2.882812-6.441406 8.128906-13.917968 10.867188-9.769532 3.582031-18.464844.679687-21.75-.734376-3.832032-1.652343-8.277344.117188-9.925782 3.949219-1.652344 3.832031.117188 8.277344 3.949219 9.929688 3.191406 1.371093 9.777344 3.679687 18.046875 3.679687 4.546875 0 9.601562-.699218 14.878906-2.632812 11.402344-4.179688 18.148438-12.117188 21.15625-16.476563 2.371094-3.4375 1.507813-8.140625-1.929687-10.511719-3.433594-2.371093-8.140625-1.507812-10.507813 1.929688zm0 0"/></svg>