<svg height="512pt" viewBox="-97 0 512 512.001" width="512pt" xmlns="http://www.w3.org/2000/svg"><path d="m318.398438 164.1875c0-10.449219-5.132813-20.152344-13.347657-26.140625 1.484375-3.742187 2.25-7.742187 2.25-11.859375 0-16.375-12.25-29.945312-28.066406-32.027344-.375-9.410156-4.742187-17.996094-12.003906-23.8125-1.179688-13.585937-10.960938-25.007812-23.964844-28.449218-4.011719-12.203126-15.527344-20.839844-28.785156-20.839844-2.796875 0-5.542969.382812-8.1875 1.128906-5.386719-13.148438-18.277344-22.1875-33.179688-22.1875-11.945312 0-22.976562 6.011719-29.566406 15.574219-4.992187-2.238281-10.40625-3.402344-16-3.402344-14.972656 0-28.621094 8.726563-35.148437 21.855469-.410157-.015625-.824219-.023438-1.238282-.023438-13.859375 0-25.578125 8.519532-30.1875 20.71875-2.25-.582031-4.574218-.878906-6.945312-.878906-14.460938 0-26.382813 11.082031-27.722656 25.199219-11.761719 3.257812-20.417969 14.0625-20.417969 26.855469 0 5.8125 1.789062 11.324218 4.984375 15.902343-6.675782 5.113281-10.871094 13.152344-10.871094 22.085938 0 8.894531 4.1875 16.929687 10.84375 22.054687-3.175781 4.574219-4.957031 10.082032-4.957031 15.871094 0 9.59375 4.917969 18.238281 12.558593 23.265625-2.214843 4.535156-3.386718 9.550781-3.386718 14.726563 0 10.636718 5.132812 20.5625 13.378906 26.835937-2.46875 4.746094-3.78125 10.042969-3.78125 15.515625 0 18.558594 15.097656 33.65625 33.652344 33.65625 3.589844 0 7.136718-.589844 10.515625-1.699219 11.3125 15.78125 27.503906 27.84375 46.347656 33.964844v13.007813c0 11.9375-8.75 18.566406-19.109375 21.6875-10.273438 3.09375-20.609375 5.929687-29.585938 12.117187-20.890624 13.765625-33.953124 37.480469-33.953124 62.855469v59.023437c0 8.382813 6.824218 15.203125 15.210937 15.203125h38.816406c.191407.015625.386719.027344.582031.027344.199219 0 .390626-.015625.585938-.027344h156.378906c.195313.015625.390625.027344.585938.027344.195312 0 .390625-.015625.582031-.027344h38.820313c8.382812 0 15.203124-6.820312 15.203124-15.203125v-30.1875c0-.015625.003907-.03125.003907-.046875s-.003907-.03125-.003907-.050781v-28.738281c0-27.125-14.933593-52.378906-38.394531-65.570313-.082031-.042969-.160156-.09375-.246093-.136719-1.230469-.683593-2.476563-1.347656-3.753907-1.964843-3.605469-1.742188-7.410156-3.214844-11.320312-4.382813-11.488281-3.421875-26.238281-6.121094-33.515625-17.289062-1.113282-1.714844-2.140625-7.273438-2.140625-9.332032v-24.246093c3.699219-2.710938 7.191406-5.6875 10.441406-8.914063 5.917969 4.746094 13.339844 7.445313 21.070313 7.445313 18.554687 0 33.652343-15.09375 33.652343-33.652344 0-1.652344-.121093-3.296875-.359375-4.921875 7.171875-5.742188 11.722656-14.210938 12.496094-23.445312 6.878906-5.785157 10.882812-14.277344 10.882812-23.433594 0-1.339844-.085937-2.671875-.261718-3.996094 6.960937-5.761719 11.105468-14.382812 11.105468-23.621094 0-3.933594-.734374-7.757812-2.152343-11.328125 7.21875-6.0625 11.605469-15.140625 11.605469-24.769531zm-170.800782 203.976562c1.949219 2.105469 3.425782 4.808594 4.453125 8.03125-13.226562-1.015624-24.648437-4.230468-33.875-7.960937 3.0625-2.757813 5.652344-6.050781 7.625-9.667969 16.058594 5.53125 20.996094 8.984375 21.796875 9.597656zm-.210937-.226562c.046875.054688.097656.105469.148437.160156-.105468-.101562-.148437-.160156-.148437-.160156zm56.957031-4.28125c.941406 1.035156 1.949219 1.996094 2.996094 2.910156-8.878906 3.980469-19.914063 7.554688-32.785156 9.121094 2.746093-11.613281 13.90625-17.628906 25-18.652344 1.332031 2.359375 2.933593 4.585938 4.789062 6.621094zm-156.726562 133.113281v-22.691406h32.058593c-.050781.351563-.085937.707031-.085937 1.074219v21.726562h-31.851563c-.066406 0-.121093-.066406-.121093-.109375zm236.472656.109375h-31.859375v-21.730468c0-.363282-.035157-.71875-.082031-1.070313h32.050781v22.691406c0 .046875-.050781.109375-.109375.109375zm-42.691406-116.683594c-2.9375 1.832032-6.226563 3.773438-9.882813 5.722657-3.675781 1.960937-5.070313 6.53125-3.109375 10.210937 1.359375 2.546875 3.96875 3.996094 6.664062 3.996094 1.199219 0 2.414063-.285156 3.542969-.890625 7.941407-4.230469 14.257813-8.386719 18.828125-11.492187 16.472656 11.03125 26.757813 29.871093 26.757813 50.003906v21.242187h-40.082031c-4.164063 0-7.542969 3.378907-7.542969 7.542969v30.347656h-139.835938v-30.347656c0-4.167969-3.378906-7.542969-7.542969-7.542969h-41.578124v-21.242187c0-18.691406 8.863281-36.257813 23.316406-47.507813 18.527344 11.820313 46.925781 25.105469 83.296875 27.480469 3.445312.226562 6.882812.335938 10.308593.335938 15.445313 0 30.664063-2.28125 45.367188-6.8125 3.984375-1.226563 6.21875-5.449219 4.992188-9.433594-1.230469-3.980469-5.453126-6.21875-9.433594-4.988282-16.207032 4.996094-33.117188 6.957032-50.253906 5.839844-28.980469-1.890625-52.4375-11.378906-69.210938-20.945312 4.929688-1.902344 10.113281-3.210938 15.171875-4.71875 13.53125 7.054687 34.027344 14.636718 59.621094 14.636718.109375 0 .21875-.003906.324219-.003906.007812 0 .015624.003906.019531.003906.015625 0 .027343-.003906.039062-.003906.640625 0 1.285157-.003906 1.929688-.015625 1.101562-.019531 2.175781-.078125 3.257812-.125.058594 0 .113281.007813.171875.007813.269532 0 .539063-.015625.8125-.042969.003906 0 .011719 0 .015625-.003906 24.4375-1.238281 43.832031-9.171875 56.710938-16.417969 5.773437 1.71875 11.550781 3.4375 17.324219 5.164062zm-46.410157-37.773437c-13.246093 2.023437-25.707031 9.144531-32 21.332031-6.757812-11.523437-20.96875-15.582031-32.859375-19.65625.082032-1 .136719-2.003906.136719-3.011718v-9.492188c4.3125.625 8.722656.953125 13.207031.953125h12.304688c13.960937 0 27.199218-3.136719 39.054687-8.734375v15.257812c0 1.125.054688 2.242188.15625 3.351563zm-39.210937-24.964844h-12.304688c-42.292968 0-76.699218-34.40625-76.699218-76.699219v-40.359374c0-21.074219 8.117187-40.972657 22.859374-56.03125 2.914063-2.976563 2.863282-7.753907-.113281-10.671876-2.976562-2.914062-7.753906-2.863281-10.667969.113282-2.160156 2.207031-4.199218 4.503906-6.117187 6.878906 11.96875-29.195312 40.683594-49.820312 74.140625-49.820312h5.492188c33.511718 0 62.265624 20.691406 74.199218 49.964843-17.464844-21.707031-44.234375-35.625-74.195312-35.625h-5.496094c-13.023438 0-25.652344 2.585938-37.53125 7.6875-3.828125 1.640625-5.597656 6.082031-3.953125 9.910157 1.644531 3.828124 6.082031 5.597656 9.910156 3.953124 9.984375-4.285156 20.609375-6.460937 31.574219-6.460937h5.496094c44.117187 0 80.011718 35.851563 80.097656 79.949219v11.085937c0 1.535157-.046875 3.082031-.136719 4.597657-.042969.664062.015625 1.3125.140625 1.9375v22.894531c0 42.289062-34.40625 76.695312-76.695312 76.695312zm91.789062-117.058593v-29.246094c9.613282 1.644531 16.957032 10.039062 16.957032 20.121094v1.753906c0 10.078125-7.34375 18.476562-16.957032 20.121094zm45.996094-20.714844c-2.03125.980468-3.515625 2.8125-4.054688 4.996094-.535156 2.1875-.066406 4.5 1.277344 6.308593 2.011719 2.703125 3.074219 5.917969 3.074219 9.296875 0 5.699219-3.105469 10.9375-8.109375 13.671875-3.199219 1.75-4.6875 5.539063-3.539062 8.996094.535156 1.605469.804687 3.273437.804687 4.949219 0 5.375-2.722656 10.300781-7.277344 13.175781-2.257812 1.425781-3.59375 3.933594-3.515625 6.601563l.015625.40625c.003907.140624.011719.285156.011719.429687 0 6.789063-3.707031 13.035156-9.671875 16.296875-3.210937 1.753906-4.699219 5.554688-3.535156 9.023438.632812 1.886718.953125 3.859374.953125 5.867187 0 10.234375-8.324219 18.5625-18.5625 18.5625-4.101563 0-8.054688-1.375-11.253906-3.816406 10.933593-15.109375 17.386718-33.660157 17.386718-53.691407v-12.398437c17.960938-1.742187 32.050782-16.921875 32.050782-35.335937v-1.75c0-18.824219-14.726563-34.265626-33.261719-35.425782-7.265625-45.328125-46.640625-80.070312-93.984375-80.070312h-5.496094c-52.488281 0-95.191406 42.703125-95.191406 95.191406v40.363281c0 .019531.003906.039063.003906.058594v29.367187c0 14.25 3.261719 27.75 9.082031 39.796876-.8125.105468-1.632812.164062-2.457031.164062-10.234375 0-18.558594-8.328125-18.558594-18.5625 0-4.777344 1.808594-9.3125 5.09375-12.769531 1.738282-1.828125 2.449219-4.402344 1.894532-6.863281-.558594-2.457032-2.304688-4.476563-4.660157-5.378907-7.132812-2.738281-11.925781-9.707031-11.925781-17.34375 0-4.8125 1.835938-9.371093 5.167969-12.839843 1.917969-1.992188 2.589843-4.875 1.75-7.511719-.835938-2.636719-3.046875-4.601563-5.765625-5.125-5.984375-1.152344-10.328125-6.414063-10.328125-12.511719 0-4.742188 2.613281-9.066406 6.820312-11.285156 2.851563-1.503906 4.429688-4.648438 3.933594-7.835938-.496094-3.183594-2.960937-5.703125-6.132813-6.265625-6.089843-1.082031-10.507812-6.359375-10.507812-12.542969 0-6.222656 4.449219-11.496093 10.574219-12.539062 3.195312-.546875 5.6875-3.070312 6.1875-6.273438.5-3.203124-1.101563-6.371093-3.976563-7.863281-4.257812-2.210937-6.898437-6.542969-6.898437-11.3125 0-6.945312 5.566406-12.613281 12.46875-12.761719 2.492187.1875 4.925781-.816406 6.5-2.730468 1.433593-1.746094 2.011719-4.042969 1.570312-6.257813-.164062-.832031-.246093-1.652343-.246093-2.445312 0-7.039063 5.722656-12.765625 12.757812-12.765625 2.8125 0 5.511719.929687 7.804688 2.691406 2.25 1.730469 5.28125 2.050781 7.84375.828125 2.566406-1.222656 4.226562-3.78125 4.296874-6.617187.242188-9.390626 7.789063-16.742188 17.1875-16.742188 1.421876 0 2.832032.175781 4.199219.519531 3.917969.996094 7.925781-1.273437 9.085938-5.148437 3.027343-10.128906 12.527343-17.203125 23.101562-17.203125 5.257813 0 10.261719 1.667969 14.464844 4.824219 1.90625 1.433593 4.378906 1.878906 6.664063 1.203124 2.289062-.671874 4.121093-2.386718 4.949218-4.625 2.992188-8.121093 10.824219-13.574218 19.488282-13.574218 10.660156 0 19.542968 7.976562 20.65625 18.554687.28125 2.671875 1.960937 4.988281 4.40625 6.089844 2.449218 1.101563 5.296874.820313 7.484374-.742187 2.609376-1.863282 5.660157-2.847657 8.824219-2.847657 7.632813 0 14.113281 5.703125 15.082031 13.269531.449219 3.539063 3.324219 6.28125 6.882813 6.566407 8.867187.707031 15.8125 8.234375 15.8125 17.136719 0 .265624-.015625.523437-.03125.820312-.140625 2.769531 1.253906 5.394531 3.628906 6.832031 5.207031 3.148438 8.3125 8.652344 8.3125 14.71875 0 1.488281-.1875 2.960938-.558593 4.382813-.644532 2.472656.003906 5.105468 1.730468 6.996094 1.722656 1.886718 4.285156 2.773437 6.808594 2.351562 1.007812-.167969 1.9375-.246094 2.847656-.246094 9.492188 0 17.210938 7.71875 17.210938 17.210938 0 3.734375-1.1875 7.300781-3.4375 10.3125-1.421875 1.902344-1.863282 4.359375-1.195313 6.636718.664063 2.277344 2.363281 4.109376 4.585938 4.945313 6.664062 2.503906 11.144531 8.976563 11.144531 16.105469-.007812 6.566406-3.832031 12.648437-9.75 15.5zm0 0"/><path d="m105.285156 180.464844c0 4.960937-4.019531 8.984375-8.984375 8.984375-4.960937 0-8.980469-4.023438-8.980469-8.984375 0-4.960938 4.019532-8.984375 8.980469-8.984375 4.964844 0 8.984375 4.023437 8.984375 8.984375zm0 0"/><path d="m177.167969 180.464844c0 4.960937-4.023438 8.984375-8.984375 8.984375-4.960938 0-8.984375-4.023438-8.984375-8.984375 0-4.960938 4.023437-8.984375 8.984375-8.984375 4.960937 0 8.984375 4.023437 8.984375 8.984375zm0 0"/><path d="m163.515625 247.585938c-3.429687-2.367188-8.128906-1.503907-10.496094 1.925781-1.933593 2.800781-6.257812 7.898437-13.519531 10.558593-9.496094 3.480469-17.941406.65625-21.128906-.714843-3.828125-1.652344-8.265625.113281-9.917969 3.941406-1.648437 3.828125.117187 8.265625 3.945313 9.917969 3.128906 1.347656 9.585937 3.609375 17.695312 3.609375 4.460938 0 9.421875-.6875 14.601562-2.582031 11.179688-4.097657 17.796876-11.882813 20.746094-16.160157 2.367188-3.433593 1.507813-8.132812-1.925781-10.496093zm0 0"/></svg>